# xmcd CD database file
#
# Track frame offsets:
#	150
#	21807
#	38117
#
# Disc length: 786 seconds
#
# Revision: 0
# Processed by: cddbd v1.5.1PL0 Copyright (c) Steve Scherf et al.
# Submitted via: CDex 1.51
#
DISCID=1a031003
DTITLE=ZABADAK - 椎葉の春節
DYEAR=1993
DGENRE=JPop
TTITLE0=椎葉の春節
TTITLE1=星狩り
TTITLE2=光の人
EXTD=YEAR: 1993
EXTT0=
EXTT1=
EXTT2=
PLAYORDER=
